{
  "accessors": [
    {
      "bufferView": 1,
      "componentType": 5126,
      "count": 960,
      "max": [
        0.89289408922195435,
        0.89462995529174805,
        0.37986928224563599
      ],
      "min": [
        -0.88931816816329956,
        -0.90544736385345459,
        -0.23054608702659607
      ],
      "type": "VEC3"
    },
    {
      "bufferView": 1,
      "byteOffset": 11520,
      "componentType": 5126,
      "count": 960,
      "max": [
        0.99985122680664062,
        0.99788981676101685,
        0.99916744232177734
      ],
      "min": [
        -0.99938845634460449,
        -0.99557316303253174,
        -0.99941617250442505
      ],
      "type": "VEC3"
    },
    {
      "bufferView": 0,
      "componentType": 5125,
      "count": 1440,
      "max": [
        959
      ],
      "min": [
        0
      ],
      "type": "SCALAR"
    },
    {
      "bufferView": 1,
      "byteOffset": 23040,
      "componentType": 5126,
      "count": 200,
      "max": [
        0.7842414379119873,
        0.93837463855743408,
        0.4538567066192627
      ],
      "min": [
        -0.89599603414535522,
        -0.89670747518539429,
        -0.042863577604293823
      ],
      "type": "VEC3"
    },
    {
      "bufferView": 1,
      "byteOffset": 25440,
      "componentType": 5126,
      "count": 200,
      "max": [
        0.96508508920669556,
        0.96609890460968018,
        0.96992623805999756
      ],
      "min": [
        -0.97788643836975098,
        -0.97262352705001831,
        -0.99606001377105713
      ],
      "type": "VEC3"
    },
    {
      "bufferView": 0,
      "byteOffset": 5760,
      "componentType": 5125,
      "count": 264,
      "max": [
        199
      ],
      "min": [
        0
      ],
      "type": "SCALAR"
    }
  ],
  "asset": {
    "extras": {
      "author": "matheusJam (https://sketchfab.com/matheusJam)",
      "license": "CC-BY-4.0 (http://creativecommons.org/licenses/by/4.0/)",
      "source": "https://sketchfab.com/3d-models/cookie-34e918d15a9d4fe9bb85bcf72c396191",
      "title": "Cookie"
    },
    "generator": "Sketchfab-6.39.0",
    "version": "2.0"
  },
  "bufferViews": [
    {
      "buffer": 0,
      "byteLength": 6816,
      "byteOffset": 0,
      "name": "floatBufferViews",
      "target": 34963
    },
    {
      "buffer": 0,
      "byteLength": 27840,
      "byteOffset": 6816,
      "byteStride": 12,
      "name": "floatBufferViews",
      "target": 34962
    }
  ],
  "buffers": [
    {
      "byteLength": 34656,
      "uri": "scene.bin"
    }
  ],
  "materials": [
    {
      "doubleSided": true,
      "emissiveFactor": [
        0,
        0,
        0
      ],
      "name": "Cookie",
      "pbrMetallicRoughness": {
        "baseColorFactor": [
          0.80000000000000004,
          0.54428399999999999,
          0.31801499999999999,
          1
        ],
        "metallicFactor": 0,
        "roughnessFactor": 0.82394172574614266
      }
    },
    {
      "doubleSided": true,
      "emissiveFactor": [
        0,
        0,
        0
      ],
      "name": "CookieChip",
      "pbrMetallicRoughness": {
        "baseColorFactor": [
          0.074898599999999996,
          0.056750000000000002,
          0.0241444,
          1
        ],
        "metallicFactor": 0,
        "roughnessFactor": 0.82394172574614266
      }
    }
  ],
  "meshes": [
    {
      "name": "Cookie_Cookie_0",
      "primitives": [
        {
          "attributes": {
            "NORMAL": 1,
            "POSITION": 0
          },
          "indices": 2,
          "material": 0,
          "mode": 4
        }
      ]
    },
    {
      "name": "Cookie_CookieChip_0",
      "primitives": [
        {
          "attributes": {
            "NORMAL": 4,
            "POSITION": 3
          },
          "indices": 5,
          "material": 1,
          "mode": 4
        }
      ]
    }
  ],
  "nodes": [
    {
      "children": [
        1
      ],
      "name": "RootNode (gltf orientation matrix)",
      "rotation": [
        -0.70710678118654746,
        -0,
        -0,
        0.70710678118654757
      ]
    },
    {
      "children": [
        2
      ],
      "name": "RootNode (model correction matrix)"
    },
    {
      "children": [
        3
      ],
      "matrix": [
        1,
        0,
        0,
        0,
        0,
        0,
        1,
        0,
        0,
        -1,
        0,
        0,
        0,
        0,
        0,
        1
      ],
      "name": "b52c047392b24f0e8159759af680cb46.fbx"
    },
    {
      "children": [
        4
      ],
      "name": "RootNode"
    },
    {
      "children": [
        5,
        6
      ],
      "matrix": [
        100,
        0,
        0,
        0,
        0,
        -1.6292067939183141e-05,
        -99.999999999998678,
        0,
        0,
        99.999999999998678,
        -1.6292067939183141e-05,
        0,
        0,
        0,
        0,
        1
      ],
      "name": "Cookie"
    },
    {
      "mesh": 0,
      "name": "Cookie_Cookie_0"
    },
    {
      "mesh": 1,
      "name": "Cookie_CookieChip_0"
    }
  ],
  "scene": 0,
  "scenes": [
    {
      "name": "OSG_Scene",
      "nodes": [
        0
      ]
    }
  ]
}

