{
  "accessors": [
    {
      "bufferView": 2,
      "componentType": 5126,
      "count": 269,
      "max": [
        1.4500260353088379,
        1.3393563032150269,
        1.6251516342163086
      ],
      "min": [
        -1.2263975143432617,
        -1.3655427694320679,
        0.037944365292787552
      ],
      "type": "VEC3"
    },
    {
      "bufferView": 2,
      "byteOffset": 3228,
      "componentType": 5126,
      "count": 269,
      "max": [
        0.9805791974067688,
        0.99287360906600952,
        0.010790647007524967
      ],
      "min": [
        -0.99895477294921875,
        -0.99287360906600952,
        -0.99902933835983276
      ],
      "type": "VEC3"
    },
    {
      "bufferView": 1,
      "componentType": 5126,
      "count": 269,
      "max": [
        0.99645411968231201,
        0.97524732351303101
      ],
      "min": [
        0.0035458388738334179,
        0.0034922200720757246
      ],
      "type": "VEC2"
    },
    {
      "bufferView": 0,
      "componentType": 5125,
      "count": 273,
      "max": [
        268
      ],
      "min": [
        0
      ],
      "type": "SCALAR"
    },
    {
      "bufferView": 2,
      "byteOffset": 6456,
      "componentType": 5126,
      "count": 75,
      "max": [
        1.4500260353088379,
        1.3393563032150269,
        3.7613275051116943
      ],
      "min": [
        -1.2263975143432617,
        -1.3413108587265015,
        1.3631947040557861
      ],
      "type": "VEC3"
    },
    {
      "bufferView": 2,
      "byteOffset": 7356,
      "componentType": 5126,
      "count": 75,
      "max": [
        0.71695852279663086,
        0.70006531476974487,
        0.97851407527923584
      ],
      "min": [
        -0.48758876323699951,
        -0.4834437370300293,
        -0.95099043846130371
      ],
      "type": "VEC3"
    },
    {
      "bufferView": 1,
      "byteOffset": 2152,
      "componentType": 5126,
      "count": 75,
      "max": [
        0.9796907901763916,
        0.99650776386260986
      ],
      "min": [
        0.0035458388738334179,
        0.5380973219871521
      ],
      "type": "VEC2"
    },
    {
      "bufferView": 0,
      "byteOffset": 1092,
      "componentType": 5125,
      "count": 75,
      "max": [
        74
      ],
      "min": [
        0
      ],
      "type": "SCALAR"
    },
    {
      "bufferView": 2,
      "byteOffset": 8256,
      "componentType": 5126,
      "count": 207,
      "max": [
        1.7361953258514404,
        1.6879147291183472,
        3.2494282722473145
      ],
      "min": [
        -1.4653711318969727,
        -1.6879147291183472,
        1.1115169525146484
      ],
      "type": "VEC3"
    },
    {
      "bufferView": 2,
      "byteOffset": 10740,
      "componentType": 5126,
      "count": 207,
      "max": [
        0.9963918924331665,
        0.93890190124511719,
        0.97643536329269409
      ],
      "min": [
        -0.95460885763168335,
        -0.93890190124511719,
        -0.99300205707550049
      ],
      "type": "VEC3"
    },
    {
      "bufferView": 1,
      "byteOffset": 2752,
      "componentType": 5126,
      "count": 207,
      "max": [
        0.83167374134063721,
        0.6554597020149231
      ],
      "min": [
        0.0035458388738334179,
        0.0034922200720757246
      ],
      "type": "VEC2"
    },
    {
      "bufferView": 0,
      "byteOffset": 1392,
      "componentType": 5125,
      "count": 207,
      "max": [
        206
      ],
      "min": [
        0
      ],
      "type": "SCALAR"
    },
    {
      "bufferView": 2,
      "byteOffset": 13224,
      "componentType": 5126,
      "count": 78,
      "max": [
        0.63600897789001465,
        0.41043898463249207,
        3.6602437496185303
      ],
      "min": [
        -0.19170419871807098,
        -0.41043993830680847,
        2.9718537330627441
      ],
      "type": "VEC3"
    },
    {
      "bufferView": 2,
      "byteOffset": 14160,
      "componentType": 5126,
      "count": 78,
      "max": [
        0.98970609903335571,
        0.93438428640365601,
        0.95195531845092773
      ],
      "min": [
        -0.93215334415435791,
        -0.95465904474258423,
        -0.46489641070365906
      ],
      "type": "VEC3"
    },
    {
      "bufferView": 1,
      "byteOffset": 4408,
      "componentType": 5126,
      "count": 78,
      "max": [
        0.93663126230239868,
        0.91330724954605103
      ],
      "min": [
        0.14741821587085724,
        0.20655390620231628
      ],
      "type": "VEC2"
    },
    {
      "bufferView": 0,
      "byteOffset": 2220,
      "componentType": 5125,
      "count": 78,
      "max": [
        77
      ],
      "min": [
        0
      ],
      "type": "SCALAR"
    },
    {
      "bufferView": 2,
      "byteOffset": 15096,
      "componentType": 5126,
      "count": 45,
      "max": [
        1.074845552444458,
        0.038263421505689621,
        4.1305007934570312
      ],
      "min": [
        0.23199872672557831,
        -0.034217014908790588,
        3.4383788108825684
      ],
      "type": "VEC3"
    },
    {
      "bufferView": 2,
      "byteOffset": 15636,
      "componentType": 5126,
      "count": 45,
      "max": [
        0.61355400085449219,
        0.99864464998245239,
        0.92521613836288452
      ],
      "min": [
        -0.98971450328826904,
        -0.97019690275192261,
        -0.84630537033081055
      ],
      "type": "VEC3"
    },
    {
      "bufferView": 1,
      "byteOffset": 5032,
      "componentType": 5126,
      "count": 45,
      "max": [
        0.53634637594223022,
        0.90656000375747681
      ],
      "min": [
        0.32069900631904602,
        0.5610731840133667
      ],
      "type": "VEC2"
    },
    {
      "bufferView": 0,
      "byteOffset": 2532,
      "componentType": 5125,
      "count": 45,
      "max": [
        44
      ],
      "min": [
        0
      ],
      "type": "SCALAR"
    }
  ],
  "asset": {
    "extras": {
      "author": "negar (https://sketchfab.com/negar)",
      "license": "CC-BY-4.0 (http://creativecommons.org/licenses/by/4.0/)",
      "source": "https://sketchfab.com/3d-models/cupcake-239325a362504d5eaafb60b0260a8880",
      "title": "Cupcake"
    },
    "generator": "Sketchfab-10.39.2",
    "version": "2.0"
  },
  "bufferViews": [
    {
      "buffer": 0,
      "byteLength": 2712,
      "byteOffset": 0,
      "name": "floatBufferViews",
      "target": 34963
    },
    {
      "buffer": 0,
      "byteLength": 5392,
      "byteOffset": 2712,
      "byteStride": 8,
      "name": "floatBufferViews",
      "target": 34962
    },
    {
      "buffer": 0,
      "byteLength": 16176,
      "byteOffset": 8104,
      "byteStride": 12,
      "name": "floatBufferViews",
      "target": 34962
    }
  ],
  "buffers": [
    {
      "byteLength": 24280,
      "uri": "scene.bin"
    }
  ],
  "materials": [
    {
      "doubleSided": true,
      "emissiveFactor": [
        0,
        0,
        0
      ],
      "name": "Material.001",
      "pbrMetallicRoughness": {
        "baseColorFactor": [
          0.18883,
          0.059531100000000003,
          0.0031736800000000012,
          1
        ],
        "metallicFactor": 0,
        "roughnessFactor": 1
      }
    },
    {
      "doubleSided": true,
      "emissiveFactor": [
        0,
        0,
        0
      ],
      "name": "Material.003",
      "pbrMetallicRoughness": {
        "baseColorFactor": [
          1,
          1,
          1,
          1
        ],
        "metallicFactor": 0,
        "roughnessFactor": 1
      }
    },
    {
      "doubleSided": true,
      "emissiveFactor": [
        0,
        0,
        0
      ],
      "name": "pink",
      "pbrMetallicRoughness": {
        "baseColorFactor": [
          1,
          0.42344100000000001,
          0.42735600000000001,
          1
        ],
        "metallicFactor": 0,
        "roughnessFactor": 1
      }
    },
    {
      "doubleSided": true,
      "emissiveFactor": [
        0,
        0,
        0
      ],
      "name": "material",
      "pbrMetallicRoughness": {
        "baseColorFactor": [
          1,
          0,
          0.0045967100000000004,
          1
        ],
        "metallicFactor": 0,
        "roughnessFactor": 0.94784255379978177
      }
    },
    {
      "doubleSided": true,
      "emissiveFactor": [
        0,
        0,
        0
      ],
      "name": "darkbrown",
      "pbrMetallicRoughness": {
        "baseColorFactor": [
          0.34622999999999993,
          0.14985699999999988,
          0.029065899999999985,
          1
        ],
        "metallicFactor": 0,
        "roughnessFactor": 0.95520256014490568
      }
    }
  ],
  "meshes": [
    {
      "name": "cupcakee_Material.001_0",
      "primitives": [
        {
          "attributes": {
            "NORMAL": 1,
            "POSITION": 0,
            "TEXCOORD_0": 2
          },
          "indices": 3,
          "material": 0,
          "mode": 4
        }
      ]
    },
    {
      "name": "cupcakee_Material.003_0",
      "primitives": [
        {
          "attributes": {
            "NORMAL": 5,
            "POSITION": 4,
            "TEXCOORD_0": 6
          },
          "indices": 7,
          "material": 1,
          "mode": 4
        }
      ]
    },
    {
      "name": "cupcakee_pink_0",
      "primitives": [
        {
          "attributes": {
            "NORMAL": 9,
            "POSITION": 8,
            "TEXCOORD_0": 10
          },
          "indices": 11,
          "material": 2,
          "mode": 4
        }
      ]
    },
    {
      "name": "cupcakee_red_0",
      "primitives": [
        {
          "attributes": {
            "NORMAL": 13,
            "POSITION": 12,
            "TEXCOORD_0": 14
          },
          "indices": 15,
          "material": 3,
          "mode": 4
        }
      ]
    },
    {
      "name": "cupcakee_darkbrown_0",
      "primitives": [
        {
          "attributes": {
            "NORMAL": 17,
            "POSITION": 16,
            "TEXCOORD_0": 18
          },
          "indices": 19,
          "material": 4,
          "mode": 4
        }
      ]
    }
  ],
  "nodes": [
    {
      "children": [
        1
      ],
      "name": "RootNode (gltf orientation matrix)",
      "rotation": [
        -0.70710678118654746,
        -0,
        -0,
        0.70710678118654757
      ]
    },
    {
      "children": [
        2
      ],
      "name": "RootNode (model correction matrix)"
    },
    {
      "children": [
        3
      ],
      "matrix": [
        1,
        0,
        0,
        0,
        0,
        0,
        1,
        0,
        0,
        -1,
        0,
        0,
        0,
        0,
        0,
        1
      ],
      "name": "9d99db62f9974157b725129831e3e3dd.fbx"
    },
    {
      "children": [
        4
      ],
      "name": "RootNode"
    },
    {
      "children": [
        5,
        6,
        7,
        8,
        9
      ],
      "matrix": [
        67.417839050292969,
        0,
        0,
        0,
        0,
        -1.0983760141202873e-05,
        -67.417839050292073,
        0,
        0,
        67.417839050292073,
        -1.0983760141202873e-05,
        0,
        0.12006759643554688,
        0,
        0,
        1
      ],
      "name": "cupcakee"
    },
    {
      "mesh": 0,
      "name": "cupcakee_Material.001_0"
    },
    {
      "mesh": 1,
      "name": "cupcakee_Material.003_0"
    },
    {
      "mesh": 2,
      "name": "cupcakee_pink_0"
    },
    {
      "mesh": 3,
      "name": "cupcakee_red_0"
    },
    {
      "mesh": 4,
      "name": "cupcakee_darkbrown_0"
    }
  ],
  "scene": 0,
  "scenes": [
    {
      "name": "OSG_Scene",
      "nodes": [
        0
      ]
    }
  ]
}

