{
  "accessors": [
    {
      "bufferView": 2,
      "componentType": 5126,
      "count": 133,
      "max": [
        -1.3126473426818848,
        0.51337850093841553,
        1.1649255752563477
      ],
      "min": [
        -2.087327241897583,
        0,
        0.39024543762207031
      ],
      "type": "VEC3"
    },
    {
      "bufferView": 2,
      "byteOffset": 1596,
      "componentType": 5126,
      "count": 133,
      "max": [
        0.8830147385597229,
        0.9998856782913208,
        0.88301455974578857
      ],
      "min": [
        -0.88301569223403931,
        -1,
        -0.88301539421081543
      ],
      "type": "VEC3"
    },
    {
      "bufferView": 1,
      "componentType": 5126,
      "count": 133,
      "max": [
        0.65625,
        0.68843984603881836
      ],
      "min": [
        0.34375,
        1.4901161193847656e-08
      ],
      "type": "VEC2"
    },
    {
      "bufferView": 0,
      "componentType": 5125,
      "count": 192,
      "max": [
        132
      ],
      "min": [
        0
      ],
      "type": "SCALAR"
    },
    {
      "bufferView": 2,
      "byteOffset": 3192,
      "componentType": 5126,
      "count": 133,
      "max": [
        -1.2930072546005249,
        0.51337850093841553,
        1.1845657825469971
      ],
      "min": [
        -2.1069674491882324,
        0,
        0.3706052303314209
      ],
      "type": "VEC3"
    },
    {
      "bufferView": 2,
      "byteOffset": 4788,
      "componentType": 5126,
      "count": 133,
      "max": [
        0.95520395040512085,
        0.99988573789596558,
        0.95520389080047607
      ],
      "min": [
        -0.9552040696144104,
        -1,
        -0.9552040696144104
      ],
      "type": "VEC3"
    },
    {
      "bufferView": 1,
      "byteOffset": 1064,
      "componentType": 5126,
      "count": 133,
      "max": [
        0.65625,
        0.68843984603881836
      ],
      "min": [
        0.34375,
        1.4901161193847656e-08
      ],
      "type": "VEC2"
    },
    {
      "bufferView": 0,
      "byteOffset": 768,
      "componentType": 5125,
      "count": 192,
      "max": [
        132
      ],
      "min": [
        0
      ],
      "type": "SCALAR"
    },
    {
      "bufferView": 2,
      "byteOffset": 6384,
      "componentType": 5126,
      "count": 352,
      "max": [
        -1.3118691444396973,
        0.69859409332275391,
        1.1657035350799561
      ],
      "min": [
        -2.0881052017211914,
        0.012819424271583557,
        0.38946747779846191
      ],
      "type": "VEC3"
    },
    {
      "bufferView": 2,
      "byteOffset": 10608,
      "componentType": 5126,
      "count": 352,
      "max": [
        0.98339647054672241,
        0.99827122688293457,
        0.98339641094207764
      ],
      "min": [
        -0.98339706659317017,
        -0.99988573789596558,
        -0.98339641094207764
      ],
      "type": "VEC3"
    },
    {
      "bufferView": 1,
      "byteOffset": 2128,
      "componentType": 5126,
      "count": 352,
      "max": [
        0.65625,
        0.3125
      ],
      "min": [
        0.34375,
        1.4901161193847656e-08
      ],
      "type": "VEC2"
    },
    {
      "bufferView": 0,
      "byteOffset": 1536,
      "componentType": 5125,
      "count": 480,
      "max": [
        351
      ],
      "min": [
        0
      ],
      "type": "SCALAR"
    },
    {
      "bufferView": 2,
      "byteOffset": 14832,
      "componentType": 5126,
      "count": 640,
      "max": [
        -1.3817391395568848,
        0.79606837034225464,
        1.0958337783813477
      ],
      "min": [
        -2.0182356834411621,
        0.56050395965576172,
        0.45933747291564941
      ],
      "type": "VEC3"
    },
    {
      "bufferView": 2,
      "byteOffset": 22512,
      "componentType": 5126,
      "count": 640,
      "max": [
        0.98188155889511108,
        1,
        0.98188191652297974
      ],
      "min": [
        -0.98188179731369019,
        -1,
        -0.98188138008117676
      ],
      "type": "VEC3"
    },
    {
      "bufferView": 1,
      "byteOffset": 4944,
      "componentType": 5126,
      "count": 640,
      "max": [
        1,
        1
      ],
      "min": [
        0,
        -7.4505805969238281e-08
      ],
      "type": "VEC2"
    },
    {
      "bufferView": 0,
      "byteOffset": 3456,
      "componentType": 5125,
      "count": 960,
      "max": [
        639
      ],
      "min": [
        0
      ],
      "type": "SCALAR"
    },
    {
      "bufferView": 2,
      "byteOffset": 30192,
      "componentType": 5126,
      "count": 240,
      "max": [
        -1.5329189300537109,
        1.043255090713501,
        0.96695780754089355
      ],
      "min": [
        -1.9017243385314941,
        0.64436912536621094,
        0.60991382598876953
      ],
      "type": "VEC3"
    },
    {
      "bufferView": 2,
      "byteOffset": 33072,
      "componentType": 5126,
      "count": 240,
      "max": [
        0.95897865295410156,
        0.95806246995925903,
        0.9788748025894165
      ],
      "min": [
        -0.92903584241867065,
        -0.94251638650894165,
        -0.97096794843673706
      ],
      "type": "VEC3"
    },
    {
      "bufferView": 1,
      "byteOffset": 10064,
      "componentType": 5126,
      "count": 240,
      "max": [
        1,
        1
      ],
      "min": [
        0,
        0
      ],
      "type": "VEC2"
    },
    {
      "bufferView": 0,
      "byteOffset": 7296,
      "componentType": 5125,
      "count": 336,
      "max": [
        239
      ],
      "min": [
        0
      ],
      "type": "SCALAR"
    },
    {
      "bufferView": 2,
      "byteOffset": 35952,
      "componentType": 5126,
      "count": 380,
      "max": [
        -1.6711134910583496,
        1.0964597463607788,
        0.96865057945251465
      ],
      "min": [
        -1.8996028900146484,
        0.93923985958099365,
        0.68978166580200195
      ],
      "type": "VEC3"
    },
    {
      "bufferView": 2,
      "byteOffset": 40512,
      "componentType": 5126,
      "count": 380,
      "max": [
        0.9665837287902832,
        0.99331909418106079,
        0.93793731927871704
      ],
      "min": [
        -0.91326826810836792,
        -0.99331867694854736,
        -0.99246126413345337
      ],
      "type": "VEC3"
    },
    {
      "bufferView": 1,
      "byteOffset": 11984,
      "componentType": 5126,
      "count": 380,
      "max": [
        0.875,
        1
      ],
      "min": [
        0.125,
        0
      ],
      "type": "VEC2"
    },
    {
      "bufferView": 0,
      "byteOffset": 8640,
      "componentType": 5125,
      "count": 492,
      "max": [
        379
      ],
      "min": [
        0
      ],
      "type": "SCALAR"
    }
  ],
  "asset": {
    "extras": {
      "author": "aquarius24 (https://sketchfab.com/aquarius24)",
      "license": "CC-BY-4.0 (http://creativecommons.org/licenses/by/4.0/)",
      "source": "https://sketchfab.com/3d-models/cupcake-caed7fd65d0047299df9a4c3dd3882fb",
      "title": "Cupcake"
    },
    "generator": "Sketchfab-8.76.0",
    "version": "2.0"
  },
  "bufferViews": [
    {
      "buffer": 0,
      "byteLength": 10608,
      "byteOffset": 0,
      "name": "floatBufferViews",
      "target": 34963
    },
    {
      "buffer": 0,
      "byteLength": 15024,
      "byteOffset": 10608,
      "byteStride": 8,
      "name": "floatBufferViews",
      "target": 34962
    },
    {
      "buffer": 0,
      "byteLength": 45072,
      "byteOffset": 25632,
      "byteStride": 12,
      "name": "floatBufferViews",
      "target": 34962
    }
  ],
  "buffers": [
    {
      "byteLength": 70704,
      "uri": "scene.bin"
    }
  ],
  "materials": [
    {
      "doubleSided": true,
      "emissiveFactor": [
        0,
        0,
        0
      ],
      "name": "White",
      "pbrMetallicRoughness": {
        "baseColorFactor": [
          0.83399999999999996,
          0.82142899999999996,
          0.74392800000000003,
          1
        ],
        "metallicFactor": 0,
        "roughnessFactor": 0.59999999999999998
      }
    },
    {
      "doubleSided": true,
      "emissiveFactor": [
        0,
        0,
        0
      ],
      "name": "Blue",
      "pbrMetallicRoughness": {
        "baseColorFactor": [
          0.14199999999999996,
          0.65435499999999958,
          1,
          1
        ],
        "metallicFactor": 0,
        "roughnessFactor": 0.59999999999999998
      }
    },
    {
      "doubleSided": true,
      "emissiveFactor": [
        0,
        0,
        0
      ],
      "name": "Orange",
      "pbrMetallicRoughness": {
        "baseColorFactor": [
          0.76699999999999979,
          0.19859999999999994,
          0.02909999999999999,
          1
        ],
        "metallicFactor": 0,
        "roughnessFactor": 0.59999999999999998
      }
    },
    {
      "doubleSided": true,
      "emissiveFactor": [
        0,
        0,
        0
      ],
      "name": "material",
      "pbrMetallicRoughness": {
        "baseColorFactor": [
          0.64300000000000002,
          0.016717999999999979,
          0.016717999999999979,
          1
        ],
        "metallicFactor": 0,
        "roughnessFactor": 0.59999999999999998
      }
    },
    {
      "doubleSided": true,
      "emissiveFactor": [
        0,
        0,
        0
      ],
      "name": "Green",
      "pbrMetallicRoughness": {
        "baseColorFactor": [
          0.19467200000000001,
          0.57999999999999996,
          0.035380000000000002,
          1
        ],
        "metallicFactor": 0,
        "roughnessFactor": 0.59999999999999998
      }
    }
  ],
  "meshes": [
    {
      "name": "Keks_White_0",
      "primitives": [
        {
          "attributes": {
            "NORMAL": 1,
            "POSITION": 0,
            "TEXCOORD_0": 2
          },
          "indices": 3,
          "material": 0,
          "mode": 4
        }
      ]
    },
    {
      "name": "Keks_Blue_0",
      "primitives": [
        {
          "attributes": {
            "NORMAL": 5,
            "POSITION": 4,
            "TEXCOORD_0": 6
          },
          "indices": 7,
          "material": 1,
          "mode": 4
        }
      ]
    },
    {
      "name": "keks_Orange_0",
      "primitives": [
        {
          "attributes": {
            "NORMAL": 9,
            "POSITION": 8,
            "TEXCOORD_0": 10
          },
          "indices": 11,
          "material": 2,
          "mode": 4
        }
      ]
    },
    {
      "name": "Krem_White_0",
      "primitives": [
        {
          "attributes": {
            "NORMAL": 13,
            "POSITION": 12,
            "TEXCOORD_0": 14
          },
          "indices": 15,
          "material": 0,
          "mode": 4
        }
      ]
    },
    {
      "name": "Klubnika_Red_0",
      "primitives": [
        {
          "attributes": {
            "NORMAL": 17,
            "POSITION": 16,
            "TEXCOORD_0": 18
          },
          "indices": 19,
          "material": 3,
          "mode": 4
        }
      ]
    },
    {
      "name": "Klubnika_Green_0",
      "primitives": [
        {
          "attributes": {
            "NORMAL": 21,
            "POSITION": 20,
            "TEXCOORD_0": 22
          },
          "indices": 23,
          "material": 4,
          "mode": 4
        }
      ]
    }
  ],
  "nodes": [
    {
      "children": [
        1
      ],
      "name": "RootNode (gltf orientation matrix)",
      "rotation": [
        -0.70710678118654746,
        -0,
        -0,
        0.70710678118654757
      ]
    },
    {
      "children": [
        2
      ],
      "matrix": [
        1,
        0,
        0,
        0,
        0,
        1,
        1.6081226229577292e-16,
        0,
        0,
        -1.6081226229577292e-16,
        1,
        0,
        0,
        1.1102230246251565e-16,
        1.1102230246251565e-16,
        1
      ],
      "name": "RootNode (model correction matrix)"
    },
    {
      "children": [
        3
      ],
      "matrix": [
        1,
        0,
        0,
        0,
        0,
        0,
        1,
        0,
        0,
        -1,
        0,
        0,
        0,
        0,
        0,
        1
      ],
      "name": "ad5bff1fb1c94dd3b9aa537c3ec157a5.fbx"
    },
    {
      "children": [
        4
      ],
      "name": "RootNode"
    },
    {
      "children": [
        5,
        6,
        7
      ],
      "matrix": [
        1,
        0,
        0,
        0,
        0,
        1,
        0,
        0,
        0,
        0,
        1,
        0,
        0,
        0,
        -0.093220286071300507,
        1
      ],
      "name": "Keks"
    },
    {
      "mesh": 0,
      "name": "Keks_White_0"
    },
    {
      "mesh": 1,
      "name": "Keks_Blue_0"
    },
    {
      "children": [
        8,
        9
      ],
      "name": "keks"
    },
    {
      "mesh": 2,
      "name": "keks_Orange_0"
    },
    {
      "children": [
        10,
        11
      ],
      "name": "Krem"
    },
    {
      "mesh": 3,
      "name": "Krem_White_0"
    },
    {
      "children": [
        12,
        13
      ],
      "name": "Klubnika"
    },
    {
      "mesh": 4,
      "name": "Klubnika_Red_0"
    },
    {
      "mesh": 5,
      "name": "Klubnika_Green_0"
    }
  ],
  "scene": 0,
  "scenes": [
    {
      "name": "OSG_Scene",
      "nodes": [
        0
      ]
    }
  ]
}

